<svg width="700" height="650" viewBox="0 0 700 650" fill="none" xmlns="http://www.w3.org/2000/svg">
<path d="M488.25 243.75H669.05C686.15 243.75 700 257.55 700 274.6V439C699.987 453.918 697.036 468.688 691.314 482.465C685.593 496.243 677.215 508.759 666.657 519.298C656.099 529.838 643.568 538.194 629.78 543.891C615.993 549.588 601.218 552.513 586.3 552.5H585.8C570.882 552.513 556.107 549.588 542.32 543.891C528.532 538.194 516.001 529.838 505.443 519.298C494.885 508.759 486.507 496.243 480.786 482.465C475.065 468.688 472.113 453.918 472.1 439V259.95C472.1 251 479.35 243.75 488.25 243.75ZM610.5 211.25C650.9 211.25 683.7 178.5 683.7 138.15C683.7 97.7502 650.9 65.0002 610.45 65.0002C570 65.0002 537.2 97.7502 537.2 138.15C537.2 178.5 570 211.25 610.45 211.25H610.5Z" fill="#5059C9"/>
<path d="M382.55 211.25C396.435 211.27 410.188 208.554 423.023 203.257C435.858 197.96 447.523 190.186 457.353 180.38C467.183 170.573 474.984 158.926 480.311 146.104C485.638 133.281 488.387 119.535 488.4 105.65C488.393 91.7568 485.648 78.0011 480.321 65.1697C474.993 52.3383 467.189 40.683 457.353 30.8705C447.517 21.0581 435.843 13.2809 423 7.98387C410.156 2.68685 396.393 -0.0261006 382.5 0.000189254C368.619 -0.0129491 354.872 2.70806 342.043 8.00785C329.214 13.3076 317.554 21.0824 307.729 30.8883C297.905 40.6942 290.108 52.3391 284.784 65.1582C279.46 77.9772 276.713 91.7195 276.7 105.6C276.7 163.95 324.05 211.25 382.5 211.25H382.55ZM523.65 243.75H225.15C217.056 243.947 209.37 247.349 203.783 253.208C198.195 259.068 195.162 266.906 195.35 275V462.5C194.263 511.098 212.509 558.141 246.08 593.297C279.652 628.452 325.803 648.846 374.4 650C423.005 648.859 469.17 628.471 502.752 593.314C536.334 558.157 554.587 511.107 553.5 462.5V275C553.593 270.988 552.895 266.997 551.445 263.255C549.995 259.513 547.822 256.093 545.049 253.191C542.277 250.289 538.961 247.961 535.289 246.341C531.617 244.722 527.662 243.841 523.65 243.75Z" fill="#7B83EB"/>
<path opacity="0.1" d="M390.7 243.75V506.5C390.66 514.387 387.507 521.939 381.925 527.511C376.344 533.083 368.787 536.224 360.9 536.25H209.65C200.187 512.796 195.315 487.742 195.3 462.45V275C195.207 270.991 195.906 267.002 197.356 263.263C198.807 259.523 200.981 256.107 203.754 253.209C206.526 250.311 209.843 247.988 213.515 246.374C217.186 244.759 221.14 243.885 225.15 243.8H390.65L390.7 243.75Z" fill="black"/>
<path opacity="0.2" d="M374.4 243.75V522.75C374.335 530.629 371.172 538.165 365.596 543.732C360.021 549.298 352.479 552.448 344.6 552.5H217.35C211.728 542.186 207.251 531.288 204 520C198.313 501.363 195.415 481.986 195.4 462.5V274.9C195.307 270.895 196.004 266.91 197.452 263.174C198.899 259.438 201.068 256.024 203.836 253.126C206.603 250.229 209.914 247.905 213.58 246.288C217.246 244.67 221.194 243.791 225.2 243.7H374.45L374.4 243.75Z" fill="black"/>
<path opacity="0.2" d="M374.4 243.75V490.25C374.335 498.129 371.172 505.665 365.596 511.232C360.021 516.798 352.479 519.948 344.6 520H204C198.313 501.363 195.415 481.986 195.4 462.5V274.9C195.307 270.895 196.004 266.91 197.452 263.174C198.899 259.438 201.068 256.024 203.836 253.126C206.603 250.229 209.914 247.905 213.58 246.288C217.246 244.67 221.194 243.791 225.2 243.7H374.45L374.4 243.75Z" fill="black"/>
<path opacity="0.2" d="M358.15 243.75V490.25C358.085 498.129 354.922 505.665 349.346 511.232C343.771 516.798 336.229 519.948 328.35 520H203.95C198.263 501.363 195.365 481.986 195.35 462.5V274.9C195.257 270.895 195.954 266.91 197.402 263.174C198.849 259.438 201.018 256.024 203.786 253.126C206.553 250.229 209.864 247.905 213.53 246.288C217.196 244.67 221.144 243.791 225.15 243.7L358.15 243.75Z" fill="black"/>
<path opacity="0.1" d="M390.7 159.75V210.95C387.95 211.1 385.35 211.25 382.55 211.25C379.8 211.25 377.2 211.1 374.4 210.95C352.07 209.229 330.862 200.463 313.834 185.915C296.806 171.367 284.836 151.788 279.65 130H360.9C368.778 130.026 376.328 133.161 381.908 138.722C387.488 144.283 390.647 151.822 390.7 159.7V159.75Z" fill="black"/>
<path opacity="0.2" d="M374.4 176V210.95C354.974 209.464 336.336 202.641 320.543 191.233C304.75 179.824 292.415 164.275 284.9 146.3H344.65C352.519 146.34 360.056 149.48 365.625 155.04C371.195 160.6 374.347 168.131 374.4 176Z" fill="black"/>
<path opacity="0.2" d="M374.4 176V210.95C354.974 209.464 336.336 202.641 320.543 191.233C304.75 179.824 292.415 164.275 284.9 146.3H344.65C352.519 146.34 360.056 149.48 365.625 155.04C371.195 160.6 374.347 168.131 374.4 176Z" fill="black"/>
<path opacity="0.2" d="M358.15 176V208.35C341.906 204.514 326.801 196.888 314.07 186.094C301.338 175.301 291.343 161.647 284.9 146.25H328.4C336.278 146.29 343.822 149.437 349.393 155.007C354.964 160.578 358.111 168.122 358.15 176Z" fill="black"/>
<path d="M29.85 146.25H328.3C344.8 146.25 358.15 159.6 358.15 176.05V473.95C358.15 477.868 357.378 481.747 355.877 485.366C354.376 488.985 352.177 492.272 349.404 495.04C346.632 497.808 343.341 500.002 339.719 501.496C336.098 502.991 332.218 503.757 328.3 503.75H29.8C25.8866 503.75 22.0115 502.979 18.396 501.482C14.7805 499.984 11.4954 497.789 8.72822 495.022C5.96103 492.255 3.76598 488.97 2.26839 485.354C0.770802 481.739 0 477.864 0 473.95V176.05C0 159.55 13.35 146.25 29.85 146.25Z" fill="url(#paint0_linear_5_15)"/>
<path d="M257.6 259.65H197.95V421.8H159.95V259.65H100.5V228.15H257.55L257.6 259.65Z" fill="white"/>
<defs>
<linearGradient id="paint0_linear_5_15" x1="62.2" y1="123" x2="295.3" y2="527.4" gradientUnits="userSpaceOnUse">
<stop stop-color="#5A62C3"/>
<stop offset="0.5" stop-color="#4D55BD"/>
<stop offset="1" stop-color="#3940AB"/>
</linearGradient>
</defs>
</svg>
